<svg width="40" height="40" viewBox="0 0 40 40" fill="none" xmlns="http://www.w3.org/2000/svg">
<g clip-path="url(#clip0_2107_149)">
<path d="M20 40C31.0457 40 40 31.0457 40 20C40 8.9543 31.0457 0 20 0C8.9543 0 0 8.9543 0 20C0 31.0457 8.9543 40 20 40Z" fill="#5486E5"/>
<path d="M28.817 11.1801C26.7362 9.07852 23.9728 7.78968 21.0254 7.54607C18.078 7.30246 15.1406 8.12013 12.7429 9.85157C10.3453 11.583 8.64532 14.1143 7.94961 16.9887C7.25391 19.8632 7.60829 22.8916 8.94883 25.5278L7.63292 31.9165C7.61927 31.9801 7.61888 32.0458 7.63178 32.1095C7.64469 32.1733 7.67061 32.2337 7.70792 32.2869C7.76258 32.3678 7.8406 32.43 7.93157 32.4653C8.02253 32.5007 8.12211 32.5074 8.21701 32.4847L14.4784 31.0006C17.1072 32.3072 20.1142 32.6388 22.9646 31.9363C25.8149 31.2339 28.3235 29.543 30.0442 27.1646C31.7648 24.7861 32.5858 21.8743 32.3611 18.9474C32.1364 16.0204 30.8806 13.2681 28.817 11.1801ZM26.8647 26.7619C25.425 28.1976 23.5711 29.1453 21.5642 29.4715C19.5573 29.7977 17.4987 29.4859 15.6784 28.5801L14.8056 28.1483L10.967 29.0574L10.9784 29.0097L11.7738 25.146L11.3466 24.3028C10.4165 22.4762 10.0884 20.402 10.4093 18.3775C10.7301 16.3529 11.6836 14.4819 13.1329 13.0324C14.9541 11.2118 17.4237 10.1891 19.9988 10.1891C22.5739 10.1891 25.0436 11.2118 26.8647 13.0324C26.8802 13.0502 26.897 13.0669 26.9147 13.0824C28.7133 14.9077 29.7174 17.37 29.708 19.9325C29.6986 22.495 28.6766 24.9498 26.8647 26.7619Z" fill="white"/>
<path d="M26.522 23.9289C26.0515 24.6698 25.3084 25.5766 24.3743 25.8016C22.7379 26.197 20.2265 25.8152 17.1015 22.9016L17.0629 22.8675C14.3152 20.3198 13.6015 18.1993 13.7743 16.5175C13.8697 15.5629 14.6652 14.6993 15.3356 14.1357C15.4416 14.0452 15.5673 13.9808 15.7027 13.9476C15.838 13.9144 15.9792 13.9133 16.1151 13.9445C16.2509 13.9756 16.3776 14.0381 16.4849 14.1269C16.5923 14.2158 16.6774 14.3285 16.7334 14.4561L17.7447 16.7289C17.8104 16.8762 17.8348 17.0387 17.8152 17.1989C17.7956 17.359 17.7327 17.5108 17.6334 17.6379L17.122 18.3016C17.0123 18.4386 16.9461 18.6053 16.9319 18.7803C16.9177 18.9553 16.9562 19.1305 17.0425 19.2834C17.3288 19.7857 18.0152 20.5243 18.7765 21.2084C19.6311 21.9811 20.5788 22.6879 21.1788 22.9289C21.3394 22.9944 21.5159 23.0104 21.6856 22.9748C21.8553 22.9392 22.0105 22.8535 22.1311 22.7289L22.7243 22.1311C22.8387 22.0183 22.9811 21.9378 23.1368 21.8978C23.2925 21.8579 23.456 21.86 23.6106 21.9039L26.0129 22.5857C26.1454 22.6263 26.2669 22.6967 26.368 22.7915C26.4691 22.8863 26.5473 23.003 26.5964 23.1326C26.6455 23.2622 26.6643 23.4013 26.6515 23.5393C26.6386 23.6774 26.5943 23.8106 26.522 23.9289Z" fill="white"/>
</g>
<defs>
<clipPath id="clip0_2107_149">
<rect width="40" height="40" fill="white"/>
</clipPath>
</defs>
</svg>
