<svg width="40" height="40" viewBox="0 0 40 40" fill="none" xmlns="http://www.w3.org/2000/svg">
<g clip-path="url(#clip0_2107_156)">
<path d="M20 40C31.0457 40 40 31.0457 40 20C40 8.9543 31.0457 0 20 0C8.9543 0 0 8.9543 0 20C0 31.0457 8.9543 40 20 40Z" fill="#5486E5"/>
<path d="M9.15308 19.5651L28.4364 12.1301C29.3314 11.8067 30.1131 12.3484 29.8231 13.7017L29.8247 13.7001L26.5414 29.1684C26.2981 30.2651 25.6464 30.5317 24.7347 30.0151L19.7347 26.3301L17.3231 28.6534C17.0564 28.9201 16.8314 29.1451 16.3147 29.1451L16.6697 24.0567L25.9364 15.6851C26.3397 15.3301 25.8464 15.1301 25.3147 15.4834L13.8631 22.6934L8.92641 21.1534C7.85475 20.8134 7.83141 20.0817 9.15308 19.5651Z" fill="white"/>
</g>
<defs>
<clipPath id="clip0_2107_156">
<rect width="40" height="40" fill="white"/>
</clipPath>
</defs>
</svg>
