<svg width="40" height="40" viewBox="0 0 40 40" fill="none" xmlns="http://www.w3.org/2000/svg">
<g clip-path="url(#clip0_2107_159)">
<path d="M20 40C31.0457 40 40 31.0457 40 20C40 8.95431 31.0457 0 20 0C8.95431 0 0 8.95431 0 20C0 31.0457 8.95431 40 20 40Z" fill="#5486E5"/>
<path d="M26.5437 12.4766H13.4542C12.9311 12.4766 12.4132 12.5796 11.9299 12.7799C11.4467 12.9802 11.0077 13.2737 10.6379 13.6437C10.2681 14.0137 9.97492 14.4529 9.77498 14.9363C9.57504 15.4197 9.47231 15.9377 9.47266 16.4608V23.5397C9.47231 24.0628 9.57504 24.5808 9.77498 25.0642C9.97492 25.5476 10.2681 25.9868 10.6379 26.3568C11.0077 26.7268 11.4467 27.0203 11.9299 27.2206C12.4132 27.4209 12.9311 27.5239 13.4542 27.5239H26.5437C27.0668 27.5239 27.5848 27.4209 28.068 27.2206C28.5512 27.0203 28.9903 26.7268 29.36 26.3568C29.7298 25.9868 30.023 25.5476 30.223 25.0642C30.4229 24.5808 30.5256 24.0628 30.5253 23.5397V16.4608C30.5256 15.9377 30.4229 15.4197 30.223 14.9363C30.023 14.4529 29.7298 14.0137 29.36 13.6437C28.9903 13.2737 28.5512 12.9802 28.068 12.7799C27.5848 12.5796 27.0668 12.4766 26.5437 12.4766ZM17.2253 23.2266V16.7739L22.7727 20.0002L17.2253 23.2266Z" fill="white"/>
</g>
<defs>
<clipPath id="clip0_2107_159">
<rect width="40" height="40" fill="white"/>
</clipPath>
</defs>
</svg>
