<svg width="104" height="72" viewBox="0 0 104 72" fill="none" xmlns="http://www.w3.org/2000/svg">
<g clip-path="url(#clip0_224_1484)">
<path d="M31.6557 0.194824C45.3239 0.194824 58.992 0.194824 72.6602 0.194824C72.7228 1.23243 73.4023 1.99895 73.8846 2.84026C82.3172 17.5008 90.753 32.1582 99.2263 46.7937C100.648 49.246 101.835 51.8447 103.648 54.0632C103.648 54.3748 103.648 54.6864 103.648 54.998C103.369 55.428 103.056 55.8424 102.818 56.2943C100.391 60.884 97.9644 65.4738 95.5626 70.073C95.1055 70.9485 94.6452 71.525 93.4584 71.5219C65.8277 71.4845 38.1939 71.4876 10.5631 71.5125C9.57052 71.5125 9.06638 71.1479 8.64678 70.3035C7.60719 68.2127 6.53628 66.1344 5.37456 64.109C3.64921 61.1022 2.42173 57.8211 0.361328 54.998C0.361328 54.7893 0.361328 54.5836 0.361328 54.3748C0.762136 53.7703 1.19426 53.1877 1.55749 52.5645C10.5725 37.0253 19.6001 21.4892 28.587 5.93127C29.6704 4.05548 31.0075 2.30432 31.6557 0.194824ZM52.0217 53.8046C67.7691 53.8046 83.5165 53.8046 99.2639 53.8046C101.443 53.8046 101.468 53.7766 100.426 51.9631C91.1224 35.8069 81.7943 19.6695 72.5444 3.48214C71.7553 2.09867 70.9036 1.6749 69.3629 1.68424C57.9963 1.74968 46.6296 1.76838 35.2629 1.66867C33.3904 1.65309 32.4103 2.23888 31.4897 3.84048C22.2774 19.8689 12.9774 35.8474 3.71183 51.8447C3.4081 52.3651 2.76305 52.9197 3.05739 53.4961C3.37365 54.1131 4.19092 53.7953 4.77961 53.7953C20.527 53.8077 36.2744 53.8046 52.0217 53.8046ZM19.5469 62.2177C19.287 62.2177 19.0177 62.1772 18.7672 62.227C18.3225 62.3174 17.5522 61.8967 17.5335 62.7037C17.5178 63.4235 18.119 63.7351 18.8486 63.704C19.0553 63.6946 19.2682 63.6884 19.4717 63.7102C19.9508 63.7632 20.646 63.5482 20.6585 64.3365C20.6742 65.1809 20.0072 65.29 19.3402 65.2869C17.7464 65.2806 15.3635 63.5669 14.8718 62.065C14.5149 60.9744 14.9219 60.3668 16.0805 60.264C17.1139 60.1736 18.0251 60.5195 18.8956 61.018C19.3496 61.2766 19.7003 61.1302 19.9352 60.7033C20.1669 60.2795 19.9007 60.0178 19.5751 59.8122C18.404 59.0674 17.1264 58.6779 15.7267 58.7652C13.5003 58.9023 12.4513 60.5974 13.4784 62.5791C14.637 64.8164 16.5158 66.2435 19.024 66.7108C20.8276 67.0474 22.1271 66.1843 22.2743 64.6886C22.4559 62.8315 21.7826 62.2208 19.5469 62.2177ZM36.4215 63.9221C37.5175 63.4266 38.269 62.7816 38.1124 61.6256C37.9434 60.3824 37.1417 59.5816 36.0051 59.1298C34.8058 58.6499 33.5376 58.8182 32.2913 58.8556C31.8843 58.868 31.5492 59.1017 31.6588 59.5535C32.2162 61.8749 32.9489 64.1464 33.857 66.3525C34.048 66.8168 34.8935 66.8791 34.978 66.3743C35.3256 64.2898 36.2681 65.6265 36.9507 66.0004C37.815 66.474 38.6072 67.0816 39.7345 66.4242C38.8702 65.3243 37.505 65.0033 36.4215 63.9221ZM48.8748 62.4233C48.8435 64.6948 50.8224 66.7264 53.0895 66.7482C55.2595 66.7669 57.1915 64.8943 57.2354 62.7287C57.2761 60.5911 55.4349 58.8462 53.0707 58.7808C50.7504 58.7153 48.903 60.3169 48.8748 62.4233ZM92.4908 60.641C92.5315 59.8215 91.9585 59.2357 91.0254 58.949C89.394 58.4474 87.3743 58.8057 86.9515 59.7249C86.1092 61.554 85.3045 63.4017 84.5404 65.2619C84.3713 65.6732 83.7325 66.2435 84.3807 66.5956C85.0414 66.9539 85.5925 66.4366 85.7898 65.7823C86.1718 64.5203 87.0298 64.2711 88.2573 64.215C90.2582 64.1246 92.2748 62.3922 92.4908 60.641ZM67.838 63.9377C67.7879 65.4084 68.4142 66.365 69.8514 66.7108C71.5204 67.1128 73.4524 66.0908 74.1194 64.3147C74.6643 62.8627 74.9962 61.3327 75.4095 59.8308C75.5254 59.4102 75.5504 58.9677 74.9711 58.8587C74.5171 58.7745 74.1132 58.9272 73.9722 59.3977C73.7029 60.292 73.4932 61.2019 73.2364 62.0993C72.9953 62.9406 72.9326 63.8598 72.2876 64.539C71.6676 65.1934 70.891 65.5361 70.0331 65.156C69.197 64.7883 69.2847 64.0343 69.46 63.274C69.7168 62.1647 69.9297 61.0429 70.127 59.9212C70.2084 59.4632 70.2616 58.9397 69.5727 58.8587C68.9872 58.7901 68.7116 59.136 68.6146 59.6564C68.3547 61.0835 68.0979 62.5106 67.838 63.9377Z" fill="currentColor"/>
<path d="M57.8924 28.1541C59.9779 28.1541 62.0633 28.1852 64.1488 28.1416C65.1571 28.1198 65.4859 28.5031 65.5266 29.5033C65.8647 38.2466 59.6867 44.9583 51.1945 45.0113C41.9822 45.0705 35.1841 38.5083 35.419 29.7775C35.6194 22.2899 41.8163 15.9801 49.5162 15.466C54.4229 15.1388 58.8349 16.2854 62.3358 19.956C63.6885 21.3738 63.6697 21.567 62.1416 22.6762C60.9204 23.5643 59.6397 24.3744 58.4686 25.3186C57.5542 26.057 56.9969 25.9542 56.1389 25.1254C52.6162 21.7103 47.152 22.3304 44.8912 26.406C43.2974 29.2789 43.3757 32.2266 45.3359 34.9157C47.1051 37.343 49.6258 38.0628 52.541 37.505C52.9481 37.4271 53.3583 37.3087 53.7309 37.1342C54.7361 36.6699 56.0919 35.9907 55.9792 35.0341C55.8853 34.227 54.3509 34.7162 53.471 34.7007C50.0735 34.6415 50.0547 34.6757 50.0798 31.3168C50.108 27.6836 49.6132 28.1946 53.2048 28.1541C54.7611 28.1385 56.3268 28.1541 57.8924 28.1541Z" fill="currentColor"/>
<path d="M75.0665 33.9125C75.9871 36.938 76.914 39.9636 77.8284 42.9892C78.3388 44.6749 78.3262 44.7341 76.5163 44.6718C74.8661 44.6157 72.8621 45.3573 71.6597 44.3384C70.5387 43.3912 70.6044 41.3907 70.188 39.8421C68.1964 32.4262 66.2331 25.0009 64.2666 17.5787C63.8001 15.812 63.8189 15.921 65.6977 15.7683C67.3729 15.6312 68.1964 16.2201 68.7663 17.8124C69.9406 21.0779 71.3497 24.2593 72.8621 27.4656C72.8621 26.5464 72.9028 25.6272 72.8558 24.7111C72.7243 22.1747 72.5709 19.6383 72.3893 17.1051C72.3235 16.1921 72.6241 15.8275 73.6011 15.7839C77.2209 15.6281 77.1927 15.6001 77.6154 19.2115C77.9912 22.4022 78.4765 25.5804 78.8241 28.7743C78.9275 29.7309 79.3314 30.3977 79.9858 31.0458C84.0158 35.0373 88.0239 39.0507 92.0289 43.064C92.4265 43.4628 92.9244 43.7838 93.2407 44.6905C91.5654 44.6905 89.9747 44.5316 88.431 44.7279C85.9792 45.0364 84.3697 44.0455 82.851 42.204C80.443 39.2812 77.9474 36.4146 75.2356 33.7504C75.1605 33.7255 75.0822 33.7006 75.007 33.6757C75.0258 33.7504 75.0478 33.8315 75.0665 33.9125Z" fill="currentColor"/>
<path d="M26.3533 35.4114C21.9162 35.4114 21.9193 35.4114 20.2754 39.5649C19.9122 40.481 19.5364 41.3909 19.1826 42.3101C18.1179 45.0583 18.6001 44.647 15.6379 44.6844C14.7518 44.6938 13.8656 44.6501 12.9794 44.6938C11.7645 44.7561 11.4858 44.4445 12.1465 43.3072C14.2601 39.674 16.2924 35.994 18.3653 32.3359C21.2305 27.2788 24.1363 22.2434 26.9514 17.1582C27.5432 16.0925 28.2383 15.7311 29.4282 15.7716C31.9802 15.8557 34.5354 15.8183 37.0874 15.7903C38.127 15.7809 38.3869 16.1673 38.0049 17.1177C37.3285 18.8034 36.6741 20.4953 36.0541 22.2029C35.7817 22.9569 35.3088 23.2249 34.5197 23.2124C32.6441 23.1782 30.7653 23.2374 28.8928 23.1875C28.0411 23.1657 27.54 23.4742 27.1987 24.2407C26.7572 25.2347 26.2468 26.2006 25.7395 27.1635C25.3168 27.9611 25.5266 28.3039 26.4347 28.2945C28.207 28.279 29.9793 28.3132 31.7517 28.2883C32.6378 28.2759 33.0418 28.5314 32.6754 29.4755C32.4499 30.0551 32.3059 30.6627 32.1149 31.2547C30.7684 35.4145 30.7653 35.4114 26.3533 35.4114Z" fill="currentColor"/>
<path d="M34.6795 62.5636C33.9061 62.6789 33.7151 61.8251 33.6055 60.9776C33.4959 60.1363 34.1785 60.2516 34.6639 60.2734C35.622 60.3139 36.5082 60.666 36.5395 61.7348C36.5614 62.5948 35.7035 62.4608 34.6795 62.5636Z" fill="currentColor"/>
<path d="M52.9455 60.2358C54.6051 60.2358 55.7073 61.2174 55.7261 62.7099C55.7449 64.2211 54.6082 65.3366 53.0645 65.3148C51.5051 65.293 50.3402 64.0778 50.3809 62.5105C50.4185 61.0709 51.361 60.2358 52.9455 60.2358Z" fill="currentColor"/>
<path d="M88.4065 62.8223C87.9431 62.7538 87.2542 62.9002 87.4797 62.1586C87.7677 61.2145 87.9901 60.0741 89.4367 60.2485C90.0098 60.3171 90.9147 60.1052 90.7644 61.04C90.5703 62.2801 89.5025 62.6634 88.4065 62.8223Z" fill="currentColor"/>
</g>
<defs>
<clipPath id="clip0_224_1484">
<rect width="103.333" height="71.6667" fill="white" transform="translate(0.333008 0.166748)"/>
</clipPath>
</defs>
</svg>
