<svg width="43" height="43" viewBox="0 0 43 43" fill="none" xmlns="http://www.w3.org/2000/svg">
<path fill-rule="evenodd" clip-rule="evenodd" d="M13.8648 33.1161C17.0633 35.2847 21.4064 34.4512 23.575 31.2527L31.7784 19.1529L30.2002 18.0829L21.9968 30.1827C20.4203 32.5079 17.2601 33.1144 14.9348 31.5379C12.6096 29.9614 12.0031 26.8012 13.5796 24.4759L22.4963 11.324C23.4808 9.87206 25.4581 9.49259 26.9101 10.477C28.362 11.4614 28.7415 13.4388 27.7571 14.8907L20.267 25.9383C19.8747 26.517 19.0802 26.6695 18.5015 26.2771C17.9228 25.8848 17.7704 25.0903 18.1627 24.5116L24.9395 14.5162L23.3612 13.4462L16.5845 23.4416C15.6001 24.8936 15.9795 26.8709 17.4315 27.8554C18.8835 28.8398 20.8608 28.4603 21.8452 27.0083L29.3353 15.9608C30.9118 13.6355 30.3053 10.4753 27.9801 8.89878C25.6548 7.32229 22.4946 7.92876 20.9181 10.254L12.0013 23.4059C9.83278 26.6044 10.6663 30.9476 13.8648 33.1161Z" fill="currentColor"/>
</svg>
