<svg width="44" height="44" viewBox="0 0 44 44" fill="none" xmlns="http://www.w3.org/2000/svg">
    <path d="M39.754 14.5406C38.7829 12.2332 37.3907 10.1621 35.6161 8.3832C33.8415 6.60859 31.7704 5.21211 29.4586 4.24531C27.0954 3.25273 24.586 2.75 21.9993 2.75H21.9133C19.3094 2.76289 16.7872 3.27852 14.4153 4.29258C12.125 5.27227 10.0711 6.66445 8.31372 8.43906C6.5563 10.2137 5.177 12.2762 4.2231 14.575C3.23481 16.9555 2.73638 19.4863 2.74927 22.0902C2.76216 25.0723 3.47544 28.0328 4.81177 30.6797V37.2109C4.81177 38.3023 5.69692 39.1875 6.78833 39.1875H13.3239C15.9708 40.5238 18.9313 41.2371 21.9133 41.25H22.0036C24.5774 41.25 27.0739 40.7516 29.4243 39.7762C31.7231 38.818 33.7899 37.443 35.5602 35.6855C37.3348 33.9281 38.7313 31.8742 39.7067 29.584C40.7208 27.2121 41.2364 24.6898 41.2493 22.0859C41.2622 19.4691 40.7551 16.9297 39.754 14.5406Z"
          fill="currentColor"/>
    <path d="M30.6578 25.777C30.1895 25.5363 27.8563 24.3934 27.4223 24.2387C26.9883 24.0754 26.6703 23.998 26.3566 24.4793C26.0387 24.9563 25.1363 26.0176 24.8527 26.3398C24.5777 26.6578 24.2984 26.6965 23.8301 26.4602C21.0457 25.068 19.2195 23.9766 17.3848 20.827C16.8992 19.9891 17.8703 20.0492 18.777 18.2402C18.9316 17.9223 18.8543 17.6516 18.734 17.4109C18.6137 17.1703 17.6684 14.8414 17.273 13.8918C16.8906 12.968 16.4953 13.0969 16.2074 13.0797C15.9324 13.0625 15.6188 13.0625 15.3008 13.0625C14.9828 13.0625 14.4715 13.1828 14.0375 13.6512C13.6035 14.1281 12.3789 15.2754 12.3789 17.6043C12.3789 19.9332 14.0762 22.1891 14.3082 22.507C14.5488 22.825 17.6469 27.6031 22.4035 29.6613C25.4113 30.959 26.5887 31.0707 28.0926 30.8473C29.0078 30.7098 30.8941 29.7043 31.2852 28.5914C31.6762 27.4828 31.6762 26.5332 31.5602 26.3355C31.4441 26.125 31.1262 26.0047 30.6578 25.777Z"
          fill="white"/>
</svg>
