<svg width="24" height="24" viewBox="0 0 24 24" fill="currentColor" xmlns="http://www.w3.org/2000/svg">
<path d="M21 12C21 12.1989 20.921 12.3896 20.7803 12.5303C20.6397 12.671 20.4489 12.75 20.25 12.75H5.55938L11.0344 18.2156C11.1752 18.3578 11.2542 18.5498 11.2542 18.75C11.2542 18.9501 11.1752 19.1422 11.0344 19.2843C10.891 19.423 10.6994 19.5004 10.5 19.5004C10.3006 19.5004 10.109 19.423 9.96563 19.2843L3.21563 12.5343C3.0748 12.3922 2.99579 12.2001 2.99579 12C2.99579 11.7998 3.0748 11.6078 3.21563 11.4656L9.96563 4.7156C10.1114 4.596 10.2964 4.53488 10.4846 4.54413C10.6729 4.55338 10.851 4.63233 10.9843 4.76563C11.1177 4.89893 11.1966 5.07705 11.2059 5.26534C11.2151 5.45363 11.154 5.63862 11.0344 5.78435L5.55938 11.25H20.25C20.4489 11.25 20.6397 11.329 20.7803 11.4696C20.921 11.6103 21 11.8011 21 12Z"/>
</svg>
