<svg width="26" height="19" viewBox="0 0 26 19" fill="none" xmlns="http://www.w3.org/2000/svg">
<path d="M2.56464 0.555176C1.51632 0.555176 0.672363 1.38985 0.672363 2.42666V16.1509C0.672363 17.1877 1.51632 18.0224 2.56464 18.0224H24.0105C25.0588 18.0224 25.9027 17.1877 25.9027 16.1509V2.42666C25.9027 1.38985 25.0588 0.555176 24.0105 0.555176H2.56464ZM4.06269 3.35265C4.15828 3.3421 4.25503 3.3533 4.34556 3.3854C4.4361 3.4175 4.51801 3.46965 4.58504 3.53785L12.3907 11.1115C12.879 11.5855 13.675 11.5856 14.1647 11.1115L21.9901 3.53785C22.0485 3.47837 22.1184 3.43102 22.1956 3.39857C22.2728 3.36613 22.3558 3.34924 22.4396 3.34888C22.5235 3.34853 22.6066 3.36472 22.6841 3.39652C22.7616 3.42831 22.8319 3.47508 22.8909 3.53406C22.9498 3.59305 22.9963 3.66306 23.0276 3.74003C23.0589 3.817 23.0744 3.89938 23.0731 3.98233C23.0718 4.06527 23.0538 4.14713 23.0201 4.22312C22.9865 4.2991 22.9378 4.36769 22.8771 4.42486L17.762 9.38624L22.8672 14.1332C22.9879 14.2471 23.0581 14.4037 23.0623 14.5687C23.0666 14.7337 23.0046 14.8936 22.8899 15.0135C22.7752 15.1334 22.6172 15.2034 22.4504 15.2083C22.2836 15.2132 22.1216 15.1526 21.9999 15.0397L16.8651 10.2538L15.0517 12.0083C14.0741 12.9547 12.4808 12.9566 11.5037 12.0083L9.70996 10.2635L4.57519 15.0397C4.45349 15.1526 4.29153 15.2132 4.12473 15.2083C3.95794 15.2034 3.7999 15.1334 3.68521 15.0135C3.57052 14.8936 3.50851 14.7337 3.51276 14.5687C3.51701 14.4037 3.58718 14.2471 3.70789 14.1332L8.80325 9.38624L3.69804 4.42486C3.61096 4.34298 3.54933 4.23822 3.52041 4.12288C3.49148 4.00754 3.49647 3.88642 3.53478 3.77379C3.57308 3.66116 3.64312 3.56169 3.73664 3.48708C3.83016 3.41247 3.94328 3.36584 4.06269 3.35265Z" fill="#70C0FF"/>
</svg>
