<svg width="20" height="14" viewBox="0 0 20 14" fill="none" xmlns="http://www.w3.org/2000/svg">
<path d="M1.4455 0C0.64469 0 0 0.633909 0 1.42133V11.8444C0 12.6318 0.64469 13.2657 1.4455 13.2657H17.8278C18.6286 13.2657 19.2733 12.6318 19.2733 11.8444V1.42133C19.2733 0.633909 18.6286 0 17.8278 0H1.4455ZM2.58985 2.12459C2.66287 2.11657 2.73678 2.12508 2.80593 2.14946C2.87509 2.17383 2.93767 2.21344 2.98887 2.26524L8.95155 8.01719C9.32459 8.37714 9.93265 8.37721 10.3067 8.01719L16.2845 2.26524C16.3291 2.22007 16.3825 2.1841 16.4415 2.15946C16.5004 2.13482 16.5638 2.12199 16.6279 2.12172C16.692 2.12146 16.7555 2.13375 16.8146 2.1579C16.8738 2.18205 16.9275 2.21757 16.9726 2.26236C17.0176 2.30716 17.0531 2.36033 17.077 2.41879C17.1009 2.47724 17.1127 2.53981 17.1118 2.6028C17.1108 2.6658 17.097 2.72796 17.0713 2.78567C17.0456 2.84338 17.0085 2.89547 16.962 2.93889L13.0547 6.70689L16.9545 10.312C17.0467 10.3986 17.1003 10.5175 17.1036 10.6428C17.1068 10.7681 17.0594 10.8896 16.9718 10.9806C16.8842 11.0716 16.7635 11.1248 16.6361 11.1286C16.5087 11.1323 16.3849 11.0862 16.292 11.0005L12.3696 7.36574L10.9843 8.69824C10.2375 9.41703 9.02037 9.41845 8.27398 8.69824L6.90376 7.37313L2.98134 11.0005C2.88838 11.0862 2.76465 11.1323 2.63724 11.1286C2.50983 11.1248 2.3891 11.0716 2.30149 10.9806C2.21388 10.8896 2.16651 10.7681 2.16976 10.6428C2.17301 10.5175 2.22661 10.3986 2.31882 10.312L6.21113 6.70689L2.31129 2.93889C2.24477 2.87671 2.1977 2.79714 2.1756 2.70955C2.15351 2.62195 2.15732 2.52996 2.18658 2.44442C2.21584 2.35888 2.26934 2.28334 2.34078 2.22668C2.41222 2.17002 2.49863 2.1346 2.58985 2.12459Z" fill="#F5F5F5"/>
</svg>
