<svg width="56" height="50" viewBox="0 0 56 50" fill="none" xmlns="http://www.w3.org/2000/svg">
<path d="M10.9098 20.2383H1.55868C0.685458 20.2383 0 20.9244 0 21.7984V46.757C0 47.6311 0.685458 48.3171 1.55868 48.3171H10.9098C11.783 48.3171 12.4676 47.6311 12.4676 46.757V21.7984C12.4685 20.9244 11.783 20.2383 10.9098 20.2383Z" fill="white"/>
<path d="M55.9991 23.1948C55.9991 20.6528 54.2554 18.0803 50.9251 18.0803H35.8262C37.9832 14.2183 38.6174 8.78628 37.118 4.81188C36.0166 1.88863 33.9117 0.182881 31.1879 0.00933856L31.1439 0.00574166C29.3714 -0.10306 27.8369 1.22594 27.6896 2.99733C27.3015 6.93935 25.5757 13.9116 23.1025 16.3871C21.0201 18.4714 19.2377 19.3445 16.283 20.7904C15.8554 20.9999 15.3882 21.2283 14.8941 21.4747C14.9031 21.5817 14.9085 21.6887 14.9085 21.7984V46.5026C15.2651 46.6249 15.6173 46.7463 15.9632 46.865C20.8395 48.5473 25.0538 49.9995 31.4951 49.9995H43.7022C47.0334 49.9995 48.7762 47.426 48.7762 44.8849C48.7762 44.1305 48.6235 43.3743 48.3207 42.6819C49.4302 42.4823 50.4013 41.9482 51.1209 41.1308C51.9376 40.202 52.3876 38.9674 52.3876 37.6546C52.3876 36.9029 52.2349 36.1467 51.9331 35.4561C54.6075 34.9939 56 32.6965 56 30.4252C56 29.1079 55.531 27.7816 54.6165 26.8104C55.5293 25.8384 55.9991 24.5121 55.9991 23.1948Z" fill="white"/>
</svg>
