<svg width="88" height="34" viewBox="0 0 88 34" fill="none" xmlns="http://www.w3.org/2000/svg">
<path d="M87.8975 32.9838L67.92 0.748753L47.9592 32.9838C47.5124 33.6964 48.6631 34.4494 49.105 33.6675L65.6948 6.88645C65.9311 6.51701 66.2593 6.21245 66.6485 6.00135C67.0377 5.79024 67.4752 5.6795 67.92 5.67951C68.3649 5.67952 68.8024 5.79027 69.1916 6.00139C69.5808 6.21251 69.909 6.51708 70.1453 6.88653L86.7516 33.6675C87.2094 34.4448 88.3451 33.708 87.8975 32.9838Z" fill="white"/>
<path d="M2.59129 29.3043L0 33.5054L7.04157 33.5208L9.449 29.3859L2.59129 29.3043Z" fill="white"/>
<path d="M67.92 7.29345C67.7594 7.29154 67.6012 7.33118 67.4612 7.40836C67.3213 7.48554 67.2046 7.59754 67.1229 7.73306L51.297 33.2768H84.5595L68.7171 7.73306C68.6354 7.59753 68.5187 7.48552 68.3788 7.40834C68.2388 7.33115 68.0805 7.29153 67.92 7.29345Z" fill="white"/>
<path d="M26.5536 -7.39495e-05H22.2691C21.8056 -0.00012457 21.3499 0.116637 20.9457 0.339001C20.5415 0.561364 20.2023 0.881865 19.9609 1.26973L18.1507 4.18396H24.1125L26.5536 -7.39495e-05Z" fill="white"/>
<path d="M19.712 11.7864L13.5017 11.7048L7.58843 21.2455H14.1979L19.712 11.7864Z" fill="white"/>
<path d="M14.68 22.8737H6.57611L3.60355 27.6764H9.39915C9.69867 27.6766 9.99292 27.7536 10.2527 27.8998C10.5124 28.046 10.7286 28.2563 10.8797 28.5098C11.0308 28.7634 11.1116 29.0512 11.1141 29.3449C11.1166 29.6385 11.0406 29.9276 10.8937 30.1835L8.95086 33.521H14.7962L20.9572 22.9388L14.68 22.8737Z" fill="white"/>
<path d="M21.1399 10.9239C21.2947 11.1772 21.3765 11.467 21.3765 11.7624C21.3765 12.0577 21.2947 12.3475 21.1399 12.6008L19.1803 15.9872H24.9925L30.8877 5.89333C27.5103 5.82481 20.5561 5.79671 17.1543 5.81199L14.5139 10.0774H19.6619C19.9623 10.0794 20.2568 10.1586 20.5162 10.3072C20.7755 10.4557 20.9906 10.6684 21.1399 10.9239Z" fill="white"/>
<path d="M30.838 4.18396C31.1374 4.18459 31.4313 4.2619 31.6908 4.40823C31.9503 4.55456 32.1662 4.76483 32.3172 5.0182C32.4683 5.27157 32.5491 5.55923 32.5518 5.85267C32.5545 6.14612 32.4788 6.43515 32.3325 6.69112L30.3564 10.0774H36.8827L42.7281 -7.39659e-05H28.4798L26.0388 4.18396H30.838Z" fill="white"/>
<path d="M27.1009 29.3043H19.1636L16.7059 33.5208L31.3861 33.5532L33.8266 29.3859L27.1009 29.3043Z" fill="white"/>
<path d="M20.1103 27.6764H26.62L32.4489 17.6803L25.4908 17.6152H18.2338L16.1247 21.2457H20.9074C21.2068 21.2425 21.5017 21.3177 21.7616 21.4637C22.0214 21.6097 22.2368 21.8211 22.3853 22.076C22.5388 22.3292 22.6211 22.6177 22.6241 22.9122C22.627 23.2068 22.5504 23.4968 22.402 23.7529L20.1103 27.6764Z" fill="white"/>
<path d="M43.5252 15.9872H49.4537L55.3324 5.89334L48.9722 5.81196H41.2668L38.7924 10.0774H44.0069C44.3046 10.0821 44.596 10.162 44.8531 10.3093C45.1101 10.4566 45.324 10.6664 45.4743 10.9184C45.6245 11.1704 45.7059 11.4562 45.7106 11.748C45.7154 12.0399 45.6433 12.328 45.5013 12.5846L43.5252 15.9872Z" fill="white"/>
<path d="M48.4739 4.1837L50.9159 -0.000488281H44.6553L42.2133 4.1837H48.4739Z" fill="white"/>
<path d="M55.2826 4.18396C55.5811 4.18665 55.8738 4.26525 56.132 4.41208C56.3902 4.5589 56.6052 4.76893 56.7558 5.0216C56.9064 5.27428 56.9876 5.56096 56.9913 5.85361C56.9951 6.14625 56.9213 6.43483 56.7771 6.69112L54.801 10.0774H60.1981L66.4421 -7.39659e-05H52.8415L50.4003 4.18396H55.2826Z" fill="white"/>
<path d="M59.202 11.7048H53.8544L51.3637 15.9876H56.5447L59.202 11.7048Z" fill="white"/>
<path d="M39.0416 22.8737H31.3362L28.5464 27.6764H33.7773C34.0759 27.6782 34.3688 27.7565 34.6269 27.9036C34.8851 28.0507 35.0995 28.2614 35.2489 28.5149C35.3983 28.7683 35.4775 29.0557 35.4786 29.3484C35.4797 29.6411 35.4027 29.929 35.2552 30.1835L33.2957 33.5535H39.2408L45.4184 22.9388L39.0416 22.8737Z" fill="white"/>
<path d="M44.5549 27.6764H49.3043L55.5317 17.6152H42.5788L40.4697 21.2457H45.3686C45.6677 21.2444 45.9618 21.3206 46.2212 21.4664C46.4807 21.6121 46.6964 21.8224 46.8465 22.076C47.0013 22.3293 47.0831 22.6191 47.0831 22.9144C47.0831 23.2098 47.0013 23.4995 46.8465 23.7529L44.5549 27.6764Z" fill="white"/>
<path d="M43.6083 29.3044L41.134 33.5535L46.2155 33.5698C45.9552 32.4695 47.8526 30.2256 48.3078 29.3044L43.6083 29.3044Z" fill="white"/>
<path d="M44.0566 11.7868C40.4569 11.7179 33.036 11.6903 29.4097 11.7055L26.9023 15.9872H32.399C32.6975 15.9899 32.9902 16.0685 33.2484 16.2153C33.5066 16.3621 33.7215 16.5722 33.8722 16.8248C34.0228 17.0775 34.1039 17.3642 34.1076 17.6568C34.1114 17.9495 34.0375 18.238 33.8934 18.4943L32.2827 21.2457H38.5433L44.0566 11.7868Z" fill="white"/>
</svg>
