<svg width="49" height="64" viewBox="0 0 49 64" fill="none" xmlns="http://www.w3.org/2000/svg">
<path fill-rule="evenodd" clip-rule="evenodd" d="M37.6536 21.3333C44.4574 26.6426 49 36.6025 49 44.8C49 57.7864 38.169 64 24.5 64C10.831 64 0 57.7866 0 44.8C0 36.6189 4.52486 26.68 11.2955 21.3333H37.6536ZM22.4583 30.1814C20.0287 30.96 18.375 33.0934 18.375 35.4134V36.4161C18.375 38.6934 19.7991 40.8667 22.2389 41.8854L25.2453 43.1414C25.9726 43.4454 26.5417 43.9707 26.5417 44.6507V45.6534C26.5417 45.9441 26.358 46.1947 26.113 46.4028C25.7072 46.7388 25.1585 46.9174 24.5869 46.9308C24.5511 46.9334 24.5231 46.9334 24.4975 46.9334C23.8723 46.9334 23.2981 46.7468 22.8897 46.4028C22.6524 46.2054 22.461 45.9601 22.461 45.6588C22.461 44.4801 21.5474 43.5255 20.4193 43.5255C19.2913 43.5255 18.3777 44.4801 18.3777 45.6588C18.3777 47.9761 20.0314 50.1041 22.461 50.8854V53.3334C22.461 54.5121 23.3746 55.4667 24.5027 55.4667C25.6307 55.4667 26.5443 54.5121 26.5443 53.3334V50.8854C27.3329 50.6348 28.0577 50.2401 28.6651 49.7334C29.9514 48.6588 30.6277 47.1761 30.6277 45.6534V44.6507C30.6277 42.3734 29.2036 40.2001 26.7638 39.1814L23.7574 37.9254C23.0301 37.6214 22.4609 37.0961 22.4609 36.4161V35.4134C22.4609 35.1094 22.6523 34.8641 22.8897 34.664C23.3006 34.32 23.8722 34.1334 24.4975 34.1334H24.5026C25.1049 34.1334 25.6893 34.3094 26.1155 34.664C26.3605 34.872 26.5443 35.1227 26.5443 35.4134C26.5443 36.5921 27.4579 37.5467 28.5859 37.5467C29.714 37.5467 30.6276 36.5921 30.6276 35.4134C30.6276 33.8934 29.9513 32.4108 28.6651 31.3334C28.0577 30.8267 27.3328 30.4321 26.5443 30.1814V27.7334C26.5443 26.5547 25.6307 25.6001 24.5026 25.6001C23.3746 25.6001 22.4609 26.5547 22.4609 27.7334V30.1814L22.4583 30.1814ZM13.0079 14.9333C11.2903 13.3947 10.2082 11.0987 10.2082 8.53333C10.2082 5.27469 10.9381 2.54403 12.7399 1.13869C13.6306 0.442709 14.7917 0 16.3332 0C18.7883 0 21.8712 1.22136 23.9413 3.14136C24.1378 3.3227 24.3266 3.51203 24.5053 3.7067C24.6737 3.52003 24.8549 3.3387 25.0412 3.16536C27.111 1.23205 30.2015 0.00270329 32.6669 0.00270329C34.2084 0.00270329 35.3696 0.445372 36.2603 1.14139C38.062 2.54407 38.7919 5.2774 38.7919 8.53604C38.7919 11.0827 37.7201 13.3733 36.0229 14.936H38.7919C39.92 14.936 40.8336 15.8907 40.8336 17.0694C40.8336 18.2481 39.92 19.2027 38.7919 19.2027H10.2086C9.08054 19.2027 8.16692 18.2481 8.16692 17.0694C8.16692 15.8907 9.08054 14.936 10.2086 14.936H13.0083L13.0079 14.9333Z" fill="white"/>
</svg>
