<svg width="20" height="20" viewBox="0 0 20 20" fill="none" xmlns="http://www.w3.org/2000/svg">
<path d="M10.918 1.51758C10.918 1.03295 10.5252 0.640073 10.0405 0.640073C9.5559 0.640073 9.16303 1.03295 9.16303 1.51758H10.918ZM9.16303 18.5606C9.16303 19.0452 9.5559 19.4381 10.0405 19.4381C10.5252 19.4381 10.918 19.0452 10.918 18.5606H9.16303ZM18.562 10.9166C19.0467 10.9166 19.4395 10.5237 19.4395 10.0391C19.4395 9.55444 19.0467 9.16157 18.562 9.16157V10.9166ZM1.51904 9.16157C1.03441 9.16157 0.641537 9.55444 0.641537 10.0391C0.641537 10.5237 1.03441 10.9166 1.51904 10.9166L1.51904 9.16157ZM9.16303 1.51758V18.5606H10.918V1.51758H9.16303ZM18.562 9.16157L1.51904 9.16157L1.51904 10.9166L18.562 10.9166V9.16157Z" fill="white"/>
</svg>
