<svg width="26" height="19" fill="none" xmlns="http://www.w3.org/2000/svg"><path d="M2.565.555A1.878 1.878 0 00.672 2.427V16.15c0 1.037.844 1.871 1.893 1.871H24.01a1.878 1.878 0 001.893-1.871V2.427A1.878 1.878 0 0024.01.555H2.564zm1.498 2.798a.637.637 0 01.522.185l7.806 7.573a1.284 1.284 0 001.774 0l7.825-7.573a.63.63 0 01.694-.141.631.631 0 01.344.343.617.617 0 01-.15.685l-5.116 4.961 5.105 4.747a.62.62 0 01.023.88.634.634 0 01-.89.027l-5.135-4.786-1.813 1.754a2.57 2.57 0 01-3.548 0L9.71 10.264 4.575 15.04a.635.635 0 01-.89-.026.62.62 0 01.023-.88l5.095-4.748-5.105-4.961a.622.622 0 01.365-1.072z" fill="#70C0FF"/></svg>