<?xml version="1.0" standalone="no"?>
<!DOCTYPE svg PUBLIC "-//W3C//DTD SVG 20010904//EN"
 "http://www.w3.org/TR/2001/REC-SVG-20010904/DTD/svg10.dtd">
<svg version="1.0" xmlns="http://www.w3.org/2000/svg"
 width="898.000000pt" height="898.000000pt" viewBox="0 0 898.000000 898.000000"
 preserveAspectRatio="xMidYMid meet">
<metadata>
Created by potrace 1.14, written by Peter Selinger 2001-2017
</metadata>
<g transform="translate(0.000000,898.000000) scale(0.100000,-0.100000)"
fill="#000000" stroke="none">
<path d="M3947 5218 l-549 -541 -498 498 -499 499 -633 -624 c-348 -343 -730
-719 -848 -835 -787 -771 -733 -715 -713 -731 10 -9 43 -27 73 -42 71 -35 171
-37 243 -4 38 17 222 193 925 890 482 478 893 883 912 899 l35 30 180 -173
180 -174 -345 -343 c-190 -188 -524 -517 -743 -731 -428 -418 -417 -404 -336
-426 90 -25 58 -52 822 706 l700 694 168 -162 c93 -88 169 -164 169 -167 0 -4
-214 -216 -475 -470 -261 -255 -475 -467 -475 -471 0 -4 24 -24 53 -44 144
-100 312 -112 469 -34 54 27 113 81 399 365 184 183 339 333 344 333 10 0 133
-120 673 -654 l323 -320 494 494 493 493 341 -334 c302 -297 349 -338 416
-374 71 -36 83 -40 173 -43 129 -5 215 23 317 103 19 15 16 19 -85 118 -58 56
-272 267 -476 469 l-371 367 169 168 168 168 317 -315 c175 -173 490 -486 700
-695 285 -284 392 -384 421 -394 44 -16 100 -9 132 17 21 17 18 20 -282 312
-167 162 -502 491 -746 730 l-443 436 143 141 c79 77 161 156 183 176 l41 35
311 -306 c172 -169 577 -570 902 -892 661 -655 649 -645 775 -644 51 0 85 6
121 22 49 23 85 49 85 62 0 4 -318 320 -707 701 -390 381 -885 868 -1101 1082
l-393 389 -500 -497 c-275 -273 -502 -496 -504 -494 -2 2 -246 246 -543 542
-296 295 -543 537 -548 537 -5 0 -256 -244 -557 -542z m1276 -778 c31 -28 57
-58 57 -65 0 -7 -141 -149 -312 -316 -172 -166 -349 -338 -393 -381 l-80 -78
-388 383 c-213 210 -387 387 -387 392 0 6 174 181 387 391 l388 381 335 -327
c184 -180 361 -351 393 -380z"/>
</g>
</svg>
