<svg width="19" height="19" viewBox="0 0 19 19" fill="none" xmlns="http://www.w3.org/2000/svg">
<path fill-rule="evenodd" clip-rule="evenodd" d="M9.6419 0.691719C9.48639 0.708715 9.34363 0.600786 9.31813 0.44527C9.29264 0.2906 9.39291 0.142735 9.54672 0.10873C12.1344 -0.318726 14.7686 0.529399 16.6219 2.3846C18.4752 4.24062 19.3198 6.87672 18.8899 9.4637C18.8815 9.54443 18.8398 9.61837 18.7752 9.66766C18.7098 9.71695 18.6282 9.73734 18.5475 9.72374C18.4676 9.711 18.3962 9.6651 18.3512 9.59797C18.3053 9.53083 18.2892 9.44755 18.307 9.36766C18.7055 6.96866 17.9229 4.5244 16.2038 2.80352C14.4847 1.0826 12.0416 0.295764 9.6419 0.691719ZM9.96821 2.67184C11.7281 2.38205 13.5185 2.95823 14.7796 4.21939C16.0407 5.48055 16.6168 7.27107 16.327 9.0311C16.31 9.18662 16.4188 9.3294 16.5735 9.35489C16.7281 9.38039 16.876 9.28011 16.91 9.12629C17.2338 7.17847 16.5973 5.19415 15.2011 3.79787C13.8049 2.40159 11.8207 1.76506 9.87304 2.08885C9.79231 2.09735 9.71838 2.13899 9.66909 2.20358C9.6198 2.26817 9.59941 2.3506 9.61301 2.43049C9.62575 2.51122 9.67164 2.58176 9.73877 2.62765C9.8059 2.67354 9.88918 2.68884 9.96821 2.67184ZM10.2945 4.65196V4.65111C11.4162 4.46754 12.5574 4.83467 13.3606 5.63862C14.1645 6.44171 14.5316 7.58304 14.348 8.70488C14.3217 8.86634 14.4313 9.01846 14.5927 9.04481C14.7542 9.07115 14.9063 8.96153 14.9327 8.80006C15.1502 7.48962 14.7228 6.15456 13.7838 5.21384C12.8448 4.27393 11.5107 3.84391 10.1993 4.05977C10.1211 4.07251 10.0523 4.11585 10.0064 4.17959C9.96054 4.24333 9.94184 4.32236 9.95459 4.40054C9.98094 4.56201 10.133 4.67164 10.2945 4.6453L10.2945 4.65196ZM10.6208 6.62866C11.1018 6.55388 11.5896 6.71279 11.9338 7.05699C12.2779 7.40116 12.4368 7.88897 12.3612 8.36912C12.345 8.52549 12.453 8.66741 12.6076 8.69291C12.7631 8.71841 12.911 8.61812 12.9441 8.46515C13.0512 7.79633 12.8311 7.11732 12.3527 6.63802C11.8734 6.15956 11.1944 5.93946 10.5257 6.04567C10.4449 6.05502 10.371 6.09666 10.3217 6.16125C10.2724 6.22584 10.252 6.30742 10.2656 6.38816C10.2784 6.46805 10.3243 6.53943 10.3914 6.58532C10.4585 6.63036 10.5418 6.64651 10.6208 6.62866ZM15.3846 18.4601L17.3935 16.4604C17.7988 16.0593 17.9934 15.4908 17.9195 14.9248C17.8447 14.3596 17.5099 13.8608 17.0145 13.5778L13.8253 11.7285C13.1089 11.3062 12.198 11.4268 11.6151 12.02L10.8061 12.8273C10.5171 13.1256 10.0727 13.2123 9.692 13.0449C8.26522 12.4118 6.58767 10.7342 5.9631 9.30314C5.7957 8.92241 5.88238 8.47794 6.18065 8.189L6.98792 7.38422C7.58108 6.80123 7.70172 5.89021 7.27939 5.17383L5.43028 1.98444C5.14815 1.48559 4.64763 1.1482 4.07914 1.07427C3.51064 0.999486 2.94044 1.19665 2.53936 1.60542L0.539839 3.62461C-0.723777 4.87132 0.363936 7.59068 2.4238 10.3952C4.17519 12.7424 6.25711 14.8245 8.60418 16.576C11.4085 18.636 14.1278 19.7239 15.3854 18.4601L15.3846 18.4601Z" fill="#F5F5F5"/>
</svg>
