<svg width="20" height="20" viewBox="0 0 20 20" fill="none" xmlns="http://www.w3.org/2000/svg">
<path fill-rule="evenodd" clip-rule="evenodd" d="M10.4354 1.29251C10.2765 1.30987 10.1307 1.19962 10.1046 1.04077C10.0786 0.882777 10.181 0.731737 10.3381 0.697003C12.9814 0.260367 15.6722 1.1267 17.5652 3.02174C19.4583 4.91762 20.3211 7.61032 19.882 10.2528C19.8733 10.3353 19.8308 10.4108 19.7648 10.4612C19.698 10.5115 19.6146 10.5324 19.5322 10.5185C19.4506 10.5055 19.3777 10.4586 19.3317 10.39C19.2848 10.3214 19.2683 10.2364 19.2865 10.1547C19.6936 7.70423 18.8942 5.20749 17.1382 3.44966C15.3822 1.69179 12.8866 0.888053 10.4354 1.29251ZM10.7687 3.31515C12.5663 3.01914 14.3952 3.60769 15.6834 4.89593C16.9716 6.18417 17.56 8.01313 17.2641 9.81096C17.2467 9.96982 17.3578 10.1157 17.5158 10.1417C17.6738 10.1677 17.8248 10.0653 17.8595 9.90819C18.1902 7.91855 17.5401 5.89162 16.1139 4.46536C14.6878 3.03909 12.6609 2.3889 10.6715 2.71964C10.589 2.72832 10.5135 2.77086 10.4631 2.83683C10.4128 2.90281 10.392 2.98701 10.4058 3.06862C10.4189 3.15108 10.4657 3.22313 10.5343 3.27001C10.6029 3.31689 10.688 3.33251 10.7687 3.31515ZM11.102 5.33779V5.33692C12.2478 5.14941 13.4135 5.52442 14.2339 6.34564C15.055 7.16597 15.43 8.33181 15.2425 9.47773C15.2156 9.64267 15.3276 9.79805 15.4925 9.82496C15.6574 9.85187 15.8128 9.73989 15.8397 9.57496C16.0619 8.23638 15.6253 6.87265 14.6662 5.91174C13.707 4.95164 12.3443 4.51238 11.0048 4.73288C10.9249 4.7459 10.8546 4.79017 10.8077 4.85528C10.7608 4.92038 10.7417 5.00111 10.7548 5.08097C10.7817 5.24591 10.9371 5.35789 11.102 5.33098L11.102 5.33779ZM11.4353 7.35693C11.9266 7.28054 12.4249 7.44287 12.7764 7.79446C13.128 8.14602 13.2903 8.64431 13.213 9.13476C13.1965 9.29449 13.3068 9.43946 13.4648 9.46551C13.6236 9.49155 13.7746 9.38912 13.8085 9.23286C13.9179 8.54968 13.6931 7.85608 13.2043 7.36649C12.7148 6.87776 12.0212 6.65294 11.3381 6.76143C11.2556 6.77098 11.1801 6.81351 11.1298 6.87949C11.0794 6.94546 11.0586 7.0288 11.0725 7.11127C11.0855 7.19287 11.1324 7.26579 11.201 7.31267C11.2695 7.35867 11.3546 7.37516 11.4353 7.35693ZM16.3014 19.4424L18.3534 17.3998C18.7674 16.99 18.9662 16.4093 18.8907 15.8312C18.8143 15.2539 18.4723 14.7443 17.9662 14.4553L14.7086 12.5663C13.9768 12.1349 13.0463 12.2581 12.4509 12.8641L11.6245 13.6887C11.3294 13.9934 10.8754 14.082 10.4865 13.911C9.02913 13.2642 7.31555 11.5507 6.67757 10.0888C6.50657 9.69994 6.59511 9.24592 6.89979 8.95078L7.7244 8.12871C8.33029 7.53321 8.45353 6.60262 8.02212 5.87087L6.13331 2.61299C5.84512 2.10342 5.33385 1.75879 4.75316 1.68328C4.17245 1.60689 3.59001 1.80828 3.18031 2.22583L1.13786 4.28838C-0.152893 5.56186 0.958177 8.33961 3.06227 11.2044C4.85127 13.602 6.9779 15.7287 9.37536 17.5179C12.2399 19.6221 15.0176 20.7333 16.3022 19.4424L16.3014 19.4424Z" fill="#70C0FF"/>
</svg>
