<svg width="60" height="60" viewBox="0 0 60 60" fill="none" xmlns="http://www.w3.org/2000/svg">
<path fill-rule="evenodd" clip-rule="evenodd" d="M11.1111 1.57166L1.57227 11.1104H7.77785C8.66119 11.1104 9.51118 10.7604 10.1334 10.1327C10.7612 9.51046 11.1112 8.66047 11.1112 7.77713L11.1111 1.57166Z" fill="white"/>
<path fill-rule="evenodd" clip-rule="evenodd" d="M47.7774 35.5547C54.5219 35.5547 60 41.0325 60 47.7773C60 54.522 54.5222 59.9998 47.7774 59.9998C41.0326 59.9998 35.5548 54.522 35.5548 47.7773C35.5548 41.0325 41.0326 35.5547 47.7774 35.5547ZM39.9218 48.563L44.6357 53.2769C45.069 53.7102 45.7718 53.7102 46.2051 53.2769L55.633 43.849C56.0663 43.4157 56.0663 42.7101 55.633 42.2768C55.1997 41.8436 54.4968 41.8435 54.0636 42.2768L45.4221 50.9182L41.4916 46.9905C41.0583 46.5571 40.3555 46.5571 39.9222 46.9905C39.4889 47.4238 39.4884 48.1297 39.9218 48.563Z" fill="white"/>
<path fill-rule="evenodd" clip-rule="evenodd" d="M46.6667 33.3745V3.33307C46.6667 1.49144 45.175 -0.000244141 43.3333 -0.000244141H14.4444C13.8306 -0.000244141 13.3333 0.496976 13.3333 1.11086V7.77749C13.3333 9.24969 12.7472 10.6636 11.7055 11.7052C10.6639 12.7468 9.24999 13.333 7.77778 13.333H1.11111C0.497223 13.333 0 13.8302 0 14.4441V56.6661C0 57.5494 0.350001 58.3994 0.977777 59.0216C1.6 59.6494 2.44999 59.9994 3.33333 59.9994H40.0807C36.0279 57.4411 33.3335 52.9217 33.3335 47.7769C33.3335 40.1794 39.2139 33.9441 46.6667 33.3745ZM7.77742 53.3324H29.9996C30.6135 53.3324 31.1108 52.8352 31.1108 52.2213C31.1108 51.6074 30.6135 51.1102 29.9996 51.1102H7.77742C7.16353 51.1102 6.66631 51.6074 6.66631 52.2213C6.66631 52.8352 7.16353 53.3324 7.77742 53.3324ZM29.9996 44.4436H25.5552C24.9413 44.4436 24.4441 44.9408 24.4441 45.5547C24.4441 46.1686 24.9413 46.6658 25.5552 46.6658H29.9996C30.6135 46.6658 31.1108 46.1686 31.1108 45.5547C31.1108 44.9408 30.6135 44.4436 29.9996 44.4436ZM7.77742 46.6658H21.1108C21.7246 46.6658 22.2219 46.1686 22.2219 45.5547C22.2219 44.9408 21.7246 44.4436 21.1108 44.4436H7.77742C7.16353 44.4436 6.66631 44.9408 6.66631 45.5547C6.66631 46.1686 7.16353 46.6658 7.77742 46.6658ZM7.77742 39.9992H16.6663C17.2802 39.9992 17.7774 39.5019 17.7774 38.8881C17.7774 38.2742 17.2802 37.777 16.6663 37.777H7.77742C7.16353 37.777 6.66631 38.2742 6.66631 38.8881C6.66631 39.5019 7.16353 39.9992 7.77742 39.9992ZM21.1108 39.9992H29.9996C30.6135 39.9992 31.1108 39.5019 31.1108 38.8881C31.1108 38.2742 30.6135 37.777 29.9996 37.777H21.1108C20.4969 37.777 19.9996 38.2742 19.9996 38.8881C19.9996 39.5019 20.4969 39.9992 21.1108 39.9992ZM7.77742 33.3325H38.8885C39.5024 33.3325 39.9996 32.8353 39.9996 32.2214C39.9996 31.6075 39.5024 31.1103 38.8885 31.1103H7.77742C7.16353 31.1103 6.66631 31.6075 6.66631 32.2214C6.66631 32.8353 7.16353 33.3325 7.77742 33.3325ZM7.77742 26.6659H38.8885C39.5024 26.6659 39.9996 26.1687 39.9996 25.5548C39.9996 24.9409 39.5024 24.4437 38.8885 24.4437H7.77742C7.16353 24.4437 6.66631 24.9409 6.66631 25.5548C6.66631 26.1687 7.16353 26.6659 7.77742 26.6659ZM7.77742 19.9993H16.6663C17.2802 19.9993 17.7774 19.5021 17.7774 18.8882C17.7774 18.2743 17.2802 17.7771 16.6663 17.7771H7.77742C7.16353 17.7771 6.66631 18.2743 6.66631 18.8882C6.66631 19.5021 7.16353 19.9993 7.77742 19.9993ZM21.1108 19.9993H38.8885C39.5024 19.9993 39.9996 19.5021 39.9996 18.8882C39.9996 18.2743 39.5024 17.7771 38.8885 17.7771H21.1108C20.4969 17.7771 19.9996 18.2743 19.9996 18.8882C19.9996 19.5021 20.4969 19.9993 21.1108 19.9993ZM21.1108 13.3327H38.8885C39.5024 13.3327 39.9996 12.8354 39.9996 12.2215C39.9996 11.6077 39.5024 11.1104 38.8885 11.1104H21.1108C20.4969 11.1104 19.9996 11.6077 19.9996 12.2215C19.9996 12.8354 20.4969 13.3327 21.1108 13.3327Z" fill="white"/>
</svg>
