<svg width="20" height="20" fill="none" xmlns="http://www.w3.org/2000/svg"><path fill-rule="evenodd" clip-rule="evenodd" d="M10.435 1.293a.302.302 0 01-.097-.596 8.303 8.303 0 019.544 9.556.302.302 0 11-.596-.098 7.701 7.701 0 00-8.85-8.862zm.334 2.022a5.65 5.65 0 016.495 6.496.302.302 0 00.595.097 6.249 6.249 0 00-7.187-7.188.302.302 0 10.097.595zm.333 2.023v-.001a3.604 3.604 0 014.14 4.14.303.303 0 00.598.098 4.21 4.21 0 00-4.835-4.842.303.303 0 00.097.598v.007zm.333 2.019a1.558 1.558 0 011.778 1.778.303.303 0 00.252.33.301.301 0 00.344-.232 2.158 2.158 0 00-2.47-2.472.306.306 0 00-.21.118.303.303 0 00.306.477zm4.866 12.085l2.052-2.042c.414-.41.613-.99.538-1.569a1.867 1.867 0 00-.925-1.376l-3.257-1.889a1.848 1.848 0 00-2.258.298l-.827.825a1.016 1.016 0 01-1.138.222c-1.457-.647-3.17-2.36-3.808-3.822A1.015 1.015 0 016.9 8.95l.824-.822c.606-.596.73-1.526.298-2.258L6.133 2.613a1.862 1.862 0 00-2.953-.387L1.138 4.288c-1.29 1.274-.18 4.052 1.924 6.916a31.043 31.043 0 006.313 6.314c2.865 2.104 5.643 3.215 6.927 1.924z" fill="#70C0FF"/></svg>