<svg width="49" height="64" fill="none" xmlns="http://www.w3.org/2000/svg"><path fill-rule="evenodd" clip-rule="evenodd" d="M37.654 21.333C44.457 26.643 49 36.603 49 44.8 49 57.786 38.169 64 24.5 64S0 57.787 0 44.8c0-8.181 4.525-18.12 11.296-23.467h26.358zm-15.196 8.848c-2.43.779-4.083 2.912-4.083 5.232v1.003c0 2.277 1.424 4.45 3.864 5.47l3.006 1.255c.728.304 1.297.83 1.297 1.51v1.002c0 .291-.184.542-.429.75-.406.336-.954.514-1.526.528-.036.002-.064.002-.09.002-.625 0-1.199-.186-1.607-.53-.238-.198-.429-.443-.429-.744 0-1.179-.914-2.133-2.042-2.133-1.128 0-2.041.954-2.041 2.133 0 2.317 1.653 4.445 4.083 5.226v2.448c0 1.18.914 2.134 2.042 2.134 1.128 0 2.041-.955 2.041-2.134v-2.448a6.29 6.29 0 002.121-1.152c1.286-1.074 1.963-2.557 1.963-4.08v-1.002c0-2.278-1.424-4.45-3.864-5.47l-3.007-1.256c-.727-.304-1.296-.829-1.296-1.509v-1.003c0-.304.191-.549.429-.749.41-.344.982-.53 1.607-.53h.006c.602 0 1.186.175 1.613.53.244.208.428.459.428.75 0 1.178.914 2.133 2.042 2.133 1.128 0 2.042-.955 2.042-2.134 0-1.52-.677-3.002-1.963-4.08a6.293 6.293 0 00-2.12-1.152v-2.448c0-1.178-.914-2.133-2.042-2.133-1.128 0-2.042.955-2.042 2.133v2.448h-.003zm-9.45-15.248c-1.718-1.538-2.8-3.834-2.8-6.4 0-3.258.73-5.989 2.532-7.394C13.63.443 14.792 0 16.333 0c2.455 0 5.538 1.221 7.608 3.141.197.182.386.371.564.566.169-.187.35-.368.536-.542 2.07-1.933 5.16-3.162 7.626-3.162 1.541 0 2.703.442 3.593 1.138 1.802 1.403 2.532 4.136 2.532 7.395 0 2.547-1.072 4.837-2.77 6.4h2.77c1.128 0 2.042.955 2.042 2.133 0 1.18-.914 2.134-2.042 2.134H10.209c-1.128 0-2.042-.955-2.042-2.134 0-1.178.914-2.133 2.042-2.133h2.8l-.001-.003z" fill="#fff"/></svg>