<svg width="88" height="34" fill="none" xmlns="http://www.w3.org/2000/svg"><path d="M87.897 32.984L67.92.749 47.96 32.984c-.448.712.703 1.465 1.145.683l16.59-26.78c.236-.37.564-.675.954-.886a2.668 2.668 0 012.543 0c.389.212.717.516.953.886l16.607 26.78c.457.778 1.593.041 1.145-.683zm-85.306-3.68L0 33.505l7.042.016 2.407-4.135-6.858-.082z" fill="#fff"/><path d="M67.92 7.293a.928.928 0 00-.459.115.905.905 0 00-.338.325L51.297 33.277H84.56L68.716 7.733a.905.905 0 00-.338-.325.928.928 0 00-.459-.115zM26.554 0h-4.285c-.463 0-.92.117-1.323.339a2.68 2.68 0 00-.985.93l-1.81 2.915h5.962L26.553 0zm-6.842 11.786l-6.21-.081-5.914 9.54h6.61l5.514-9.459zM14.68 22.874H6.576l-2.972 4.802h5.795c.3 0 .594.078.854.224a1.7 1.7 0 01.627.61 1.658 1.658 0 01.014 1.673L8.95 33.521h5.845l6.161-10.582-6.277-.065z" fill="#fff"/><path d="M21.14 10.924a1.607 1.607 0 010 1.677l-1.96 3.386h5.813l5.895-10.094c-3.378-.068-10.332-.096-13.734-.081l-2.64 4.265h5.148c.3.002.595.082.854.23a1.7 1.7 0 01.624.617z" fill="#fff"/><path d="M30.838 4.184c.3 0 .593.078.853.224a1.7 1.7 0 01.626.61 1.658 1.658 0 01.016 1.673l-1.977 3.386h6.527L42.728 0H28.48l-2.441 4.184h4.799zM27.1 29.304h-7.936l-2.458 4.217 14.68.032 2.44-4.167-6.725-.082zm-6.99-1.628h6.51l5.829-9.996-6.958-.065h-7.257l-2.11 3.63h4.783c.3-.003.595.073.855.219.26.146.475.357.623.612a1.645 1.645 0 01.017 1.677l-2.292 3.923zm23.415-11.689h5.929l5.878-10.094-6.36-.081h-7.705l-2.475 4.265h5.215c.298.005.589.085.846.232.257.148.471.357.621.61a1.673 1.673 0 01.027 1.666l-1.976 3.402zm4.949-11.803L50.916 0h-6.26l-2.443 4.184h6.26z" fill="#fff"/><path d="M55.283 4.184c.298.003.59.081.849.228.258.147.473.357.624.61a1.666 1.666 0 01.021 1.67l-1.976 3.385h5.397L66.442 0h-13.6L50.4 4.184h4.883zm3.919 7.521h-5.348l-2.49 4.283h5.18l2.658-4.283zm-20.16 11.169h-7.706l-2.79 4.802h5.231a1.73 1.73 0 011.472.838 1.653 1.653 0 01.006 1.67l-1.96 3.37h5.946l6.177-10.615-6.376-.065z" fill="#fff"/><path d="M44.555 27.676h4.75l6.227-10.06H42.579l-2.11 3.63h4.9c.299-.002.593.075.852.22.26.146.475.356.626.61a1.607 1.607 0 010 1.677l-2.292 3.923zm-.947 1.628l-2.474 4.25 5.081.016c-.26-1.1 1.638-3.344 2.093-4.266h-4.7zm.449-17.517c-3.6-.07-11.021-.097-14.647-.082l-2.508 4.282H32.4c.298.003.591.082.85.228.258.147.472.357.623.61a1.666 1.666 0 01.021 1.67l-1.61 2.75h6.26l5.514-9.458z" fill="#fff"/></svg>