<svg width="60" height="60" fill="none" xmlns="http://www.w3.org/2000/svg"><path fill-rule="evenodd" clip-rule="evenodd" d="M11.111 1.572L1.572 11.11h6.206c.883 0 1.733-.35 2.355-.977a3.316 3.316 0 00.978-2.356V1.572zm36.666 33.983C54.522 35.555 60 41.032 60 47.777 60 54.522 54.522 60 47.777 60c-6.744 0-12.222-5.478-12.222-12.223 0-6.745 5.478-12.222 12.222-12.222zm-7.855 13.008l4.714 4.714a1.11 1.11 0 001.57 0l9.427-9.428a1.11 1.11 0 10-1.57-1.572l-8.64 8.641-3.931-3.928a1.11 1.11 0 00-1.57 0 1.114 1.114 0 000 1.573z" fill="#fff"/><path fill-rule="evenodd" clip-rule="evenodd" d="M46.667 33.374V3.334A3.332 3.332 0 0043.333 0H14.444a1.11 1.11 0 00-1.11 1.11v6.667a5.557 5.557 0 01-5.556 5.556H1.11A1.11 1.11 0 000 14.444v42.222c0 .883.35 1.733.978 2.356a3.316 3.316 0 002.355.977h36.748c-4.053-2.558-6.748-7.077-6.748-12.222 0-7.598 5.88-13.833 13.334-14.403zM7.777 53.332H30a1.11 1.11 0 100-2.222H7.777a1.11 1.11 0 100 2.222zM30 44.444h-4.445a1.11 1.11 0 100 2.222H30a1.11 1.11 0 100-2.222zM7.777 46.666h13.334a1.11 1.11 0 100-2.222H7.777a1.11 1.11 0 100 2.222zm0-6.667h8.89a1.11 1.11 0 100-2.222h-8.89a1.11 1.11 0 100 2.222zm13.334 0H30a1.11 1.11 0 100-2.222h-8.89a1.11 1.11 0 100 2.222zM7.777 33.333h31.111a1.11 1.11 0 100-2.223H7.779a1.11 1.11 0 100 2.223zm0-6.667h31.111a1.11 1.11 0 100-2.222H7.779a1.11 1.11 0 100 2.222zm0-6.667h8.89a1.11 1.11 0 100-2.222h-8.89a1.11 1.11 0 100 2.222zm13.334 0h17.777a1.11 1.11 0 100-2.222H21.111a1.11 1.11 0 100 2.222zm0-6.666h17.777a1.11 1.11 0 100-2.223H21.111a1.11 1.11 0 100 2.223z" fill="#fff"/></svg>