<svg width="56" height="50" fill="none" xmlns="http://www.w3.org/2000/svg"><path d="M10.91 20.238H1.559c-.874 0-1.559.686-1.559 1.56v24.959c0 .874.685 1.56 1.559 1.56h9.35c.874 0 1.559-.686 1.559-1.56V21.798c0-.874-.685-1.56-1.558-1.56zM56 23.195c0-2.542-1.745-5.115-5.075-5.115H35.826c2.157-3.862 2.791-9.294 1.292-13.268-1.101-2.923-3.206-4.63-5.93-4.803l-.044-.003a3.267 3.267 0 00-3.454 2.991c-.389 3.942-2.114 10.915-4.588 13.39-2.082 2.084-3.864 2.957-6.819 4.403-.428.21-.895.438-1.389.685.01.107.014.214.014.323v24.705l1.055.362c4.877 1.682 9.09 3.134 15.532 3.134h12.207c3.331 0 5.074-2.573 5.074-5.114 0-.755-.153-1.51-.455-2.203 1.11-.2 2.08-.734 2.8-1.551.817-.929 1.267-2.164 1.267-3.476 0-.752-.153-1.508-.455-2.199 2.675-.462 4.067-2.76 4.067-5.03 0-1.318-.469-2.644-1.383-3.616.912-.972 1.382-2.298 1.382-3.615z" fill="#fff"/></svg>