<svg width="20" height="14" fill="none" xmlns="http://www.w3.org/2000/svg"><path d="M1.446 0A1.43 1.43 0 000 1.421v10.423a1.43 1.43 0 001.446 1.422h16.382c.8 0 1.445-.634 1.445-1.422V1.421A1.43 1.43 0 0017.828 0H1.445zM2.59 2.125a.49.49 0 01.399.14l5.963 5.752c.373.36.98.36 1.355 0l5.978-5.752a.481.481 0 01.343-.143.489.489 0 01.449.297.468.468 0 01-.115.52l-3.907 3.768 3.9 3.605a.47.47 0 01-.319.817.487.487 0 01-.344-.128L12.37 7.366l-1.386 1.332a1.971 1.971 0 01-2.71 0l-1.37-1.325-3.923 3.628a.487.487 0 01-.68-.02.47.47 0 01.018-.669L6.21 6.707l-3.9-3.768a.472.472 0 01-.124-.495.474.474 0 01.403-.32z" fill="#F5F5F5"/></svg>