<svg width="19" height="19" fill="none" xmlns="http://www.w3.org/2000/svg"><path fill-rule="evenodd" clip-rule="evenodd" d="M9.642.692a.296.296 0 01-.095-.583 8.128 8.128 0 019.343 9.355.296.296 0 11-.583-.096A7.54 7.54 0 009.642.692zm.326 1.98a5.532 5.532 0 016.359 6.36.296.296 0 00.583.095 6.117 6.117 0 00-7.037-7.038.296.296 0 10.095.583zm.326 1.98a3.528 3.528 0 014.054 4.053.296.296 0 00.585.095 4.12 4.12 0 00-4.734-4.74.296.296 0 00.095.585v.007zm.327 1.977a1.525 1.525 0 011.74 1.74.297.297 0 00.247.324.295.295 0 00.336-.228 2.113 2.113 0 00-2.418-2.42.3.3 0 00-.204.116.297.297 0 00.3.467zm4.764 11.831l2.008-2a1.828 1.828 0 00-.378-2.882l-3.19-1.85a1.81 1.81 0 00-2.21.292l-.809.807a.994.994 0 01-1.114.218c-1.427-.633-3.104-2.31-3.729-3.742a.994.994 0 01.218-1.114l.807-.805a1.81 1.81 0 00.291-2.21L5.43 1.984a1.823 1.823 0 00-2.89-.379l-2 2.02C-.724 4.87.364 7.59 2.424 10.395a30.388 30.388 0 006.18 6.181c2.805 2.06 5.524 3.148 6.781 1.884z" fill="#F5F5F5"/></svg>