<svg width="44" height="44" fill="none" xmlns="http://www.w3.org/2000/svg"><path d="M39.754 14.54a19.257 19.257 0 00-4.138-6.157 19.093 19.093 0 00-6.157-4.138 19.158 19.158 0 00-7.46-1.495h-.086a19.205 19.205 0 00-13.6 5.69 19.076 19.076 0 00-4.09 6.135A19.257 19.257 0 002.75 22.09a19.31 19.31 0 002.063 8.59v6.53c0 1.092.885 1.977 1.976 1.977h6.536a19.31 19.31 0 008.59 2.063h.09c2.573 0 5.07-.498 7.42-1.474a19.098 19.098 0 006.136-4.09 19.205 19.205 0 005.69-13.6 19.178 19.178 0 00-1.496-7.545z" fill="#08021A"/><path d="M30.658 25.777c-.469-.24-2.802-1.384-3.236-1.538-.434-.164-.752-.241-1.065.24-.318.477-1.22 1.539-1.504 1.86-.275.319-.555.358-1.023.121-2.784-1.392-4.61-2.483-6.445-5.633-.486-.838.485-.778 1.392-2.587.155-.318.077-.588-.043-.83-.12-.24-1.066-2.569-1.461-3.518-.382-.924-.778-.795-1.066-.812-.275-.018-.588-.018-.906-.018-.318 0-.83.12-1.264.59-.434.476-1.658 1.623-1.658 3.952 0 2.33 1.697 4.585 1.93 4.903.24.318 3.338 5.096 8.095 7.154 3.007 1.298 4.185 1.41 5.689 1.186.915-.137 2.801-1.143 3.192-2.256.391-1.108.391-2.058.275-2.256-.116-.21-.434-.33-.902-.558z" fill="#fff"/></svg>