<svg width="24" height="24" viewBox="0 0 24 24" fill="currentColor" xmlns="http://www.w3.org/2000/svg">
<path d="M19.2843 18.2156C19.4252 18.3578 19.5042 18.5498 19.5042 18.75C19.5042 18.9501 19.4252 19.1422 19.2843 19.2843C19.141 19.423 18.9494 19.5004 18.7499 19.5004C18.5505 19.5004 18.3589 19.423 18.2156 19.2843L11.9999 13.0593L5.78432 19.2843C5.64097 19.423 5.44936 19.5004 5.24995 19.5004C5.05054 19.5004 4.85893 19.423 4.71557 19.2843C4.57474 19.1422 4.49573 18.9501 4.49573 18.75C4.49573 18.5498 4.57474 18.3578 4.71557 18.2156L10.9406 12L4.71557 5.78435C4.59597 5.63862 4.53486 5.45363 4.5441 5.26534C4.55335 5.07705 4.6323 4.89893 4.7656 4.76563C4.89891 4.63233 5.07702 4.55338 5.26531 4.54413C5.4536 4.53488 5.6386 4.596 5.78432 4.7156L11.9999 10.9406L18.2156 4.7156C18.3613 4.596 18.5463 4.53488 18.7346 4.54413C18.9229 4.55338 19.101 4.63233 19.2343 4.76563C19.3676 4.89893 19.4465 5.07705 19.4558 5.26534C19.465 5.45363 19.4039 5.63862 19.2843 5.78435L13.0593 12L19.2843 18.2156Z"/>
</svg>
