<svg width="50" height="50" viewBox="0 0 50 50" fill="none" xmlns="http://www.w3.org/2000/svg">
<path d="M37.2405 9.8023C33.2639 9.8023 29.7077 11.6359 27.3719 14.5014L20.4484 10.0858C20.7705 9.256 20.9491 8.35516 20.9491 7.41288C20.9491 3.32547 17.6237 0 13.5363 0C9.44887 0 6.1235 3.32547 6.1235 7.41288C6.1235 10.8289 8.44689 13.711 11.596 14.5661L10.7628 27.1397C4.78317 27.5073 0.0307617 32.488 0.0307617 38.5586C0.0307617 44.8674 5.16336 50 11.4722 50C17.7811 50 22.9138 44.8674 22.9138 38.5586C22.9138 36.8646 22.5434 35.2557 21.8798 33.808L27.2818 30.448C29.6157 33.3776 33.2124 35.259 37.2406 35.259C44.259 35.259 49.9689 29.5491 49.9689 22.5307C49.9688 15.5122 44.2589 9.8023 37.2405 9.8023ZM9.04956 7.41288C9.04956 4.93889 11.0623 2.92606 13.5363 2.92606C16.0103 2.92606 18.023 4.93889 18.023 7.41288C18.023 9.88676 16.0103 11.8994 13.5363 11.8994C11.0623 11.8994 9.04956 9.88676 9.04956 7.41288ZM11.4722 47.0739C6.77679 47.0739 2.95682 43.254 2.95682 38.5586C2.95682 33.8631 6.77679 30.043 11.4722 30.043C16.1677 30.043 19.9877 33.8631 19.9877 38.5586C19.9877 43.254 16.1677 47.0739 11.4722 47.0739ZM20.3307 31.3256C18.6758 29.3025 16.3431 27.8549 13.6826 27.332L14.5157 14.7586C16.2166 14.533 17.7366 13.7292 18.8718 12.5507L25.7947 16.966C24.9737 18.648 24.5121 20.5363 24.5121 22.5307C24.5121 24.4738 24.9505 26.3164 25.7325 27.9655L20.3307 31.3256ZM37.2405 32.3329C31.8355 32.3329 27.4382 27.9357 27.4382 22.5307C27.4382 17.1257 31.8355 12.7284 37.2405 12.7284C42.6455 12.7284 47.0428 17.1257 47.0428 22.5307C47.0428 27.9357 42.6455 32.3329 37.2405 32.3329Z" fill="#5486E5"/>
<path d="M41.8176 21.7363C42.1946 21.1352 42.4136 20.4253 42.4136 19.6649C42.4138 18.6228 42.0062 17.6413 41.2661 16.9012C40.5737 16.2089 39.6702 15.8076 38.7035 15.7589V14.4514H35.7775V15.7537H32.6602V18.6798H33.4296V26.3816H32.6602V29.3077H35.7775V30.61H38.7035V29.3077H38.9548C41.3419 29.3077 43.2839 27.3656 43.2839 24.9785C43.284 23.8252 42.8329 22.7388 42.0136 21.9195C41.95 21.8559 41.8843 21.7954 41.8176 21.7363ZM36.3556 18.6798H38.5027C38.763 18.6798 39.0096 18.783 39.197 18.9703C39.3843 19.1577 39.4875 19.4043 39.4875 19.6648C39.4875 20.1945 39.0436 20.6421 38.5154 20.6492H36.3557V18.6798H36.3556ZM38.9548 26.3815H36.3557V23.5757L38.9549 23.5751C39.3265 23.5751 39.6779 23.7219 39.9445 23.9884C40.2109 24.2549 40.3577 24.6064 40.3577 24.9781C40.3577 25.752 39.7283 26.3815 38.9548 26.3815Z" fill="#5486E5"/>
<path d="M5.95312 38.5586L11.4721 45.2952L16.9913 38.5586L11.4722 31.8219L5.95312 38.5586ZM11.4721 40.6782L9.73564 38.5587L11.4722 36.4391L13.2086 38.5587L11.4721 40.6782Z" fill="#5486E5"/>
</svg>
