<svg width="56" height="40" viewBox="0 0 56 40" fill="none" xmlns="http://www.w3.org/2000/svg">
<path d="M49.875 0.75H6.125C2.74772 0.75 0 3.49772 0 6.875V33.125C0 36.5023 2.74772 39.25 6.125 39.25H49.875C53.2523 39.25 56 36.5023 56 33.125V6.875C56 3.49772 53.2523 0.75 49.875 0.75ZM6.125 4.25H49.875C51.3224 4.25 52.5 5.42764 52.5 6.875V10.375H3.5V6.875C3.5 5.42764 4.67764 4.25 6.125 4.25ZM49.875 35.75H6.125C4.67764 35.75 3.5 34.5724 3.5 33.125V13.875H52.5V33.125C52.5 34.5724 51.3224 35.75 49.875 35.75Z" fill="#5486E5"/>
<path d="M12.25 30.5H10.5C9.53356 30.5 8.75 29.7164 8.75 28.75V27C8.75 26.0336 9.53356 25.25 10.5 25.25H12.25C13.2164 25.25 14 26.0336 14 27V28.75C14 29.7164 13.2164 30.5 12.25 30.5Z" fill="#5486E5"/>
</svg>
