<?xml version="1.0" encoding="utf-8"?><svg viewBox="0 0 104 72" xmlns="http://www.w3.org/2000/svg" xmlns:xlink="http://www.w3.org/1999/xlink"><style>:root>svg{display:none}:root>svg:target{display:block}</style><svg viewBox="0 0 50 50" id="arrow" xmlns="http://www.w3.org/2000/svg"><path fill="none" d="M-1-1h52v52H-1z"/><path fill="none" d="M0 0h50v50H0z"/><path fill="currentColor" d="M10.392 43.875L29.175 25.5 10.392 6.717 16.108 1l24.5 24.5-24.5 24.5-5.716-6.125z"/></svg><svg fill="none" viewBox="0 0 23 15" id="arrow-down" xmlns="http://www.w3.org/2000/svg"><path d="M2 1l9.5 11L21 1" stroke="currentColor" stroke-width="3"/></svg><svg fill="none" viewBox="0 0 104 72" id="dots1" xmlns="http://www.w3.org/2000/svg"><g clip-path="url(#cclip0_224_1484)" fill="currentColor"><path d="M31.656.195H72.66c.063 1.037.742 1.804 1.225 2.645 8.432 14.66 16.868 29.318 25.341 43.954 1.422 2.452 2.609 5.05 4.422 7.27v.934c-.279.43-.592.844-.83 1.296-2.427 4.59-4.854 9.18-7.255 13.779-.457.876-.918 1.452-2.105 1.449-27.63-.038-55.264-.034-82.895-.01-.992 0-1.497-.364-1.916-1.209-1.04-2.09-2.11-4.169-3.272-6.194-1.726-3.007-2.953-6.288-5.014-9.111v-.623c.401-.605.833-1.187 1.196-1.81C10.572 37.025 19.6 21.489 28.587 5.93c1.083-1.876 2.42-3.627 3.069-5.736zm20.366 53.61h47.242c2.179 0 2.204-.028 1.162-1.842-9.304-16.156-18.632-32.294-27.882-48.48-.789-1.384-1.64-1.808-3.181-1.799-11.367.066-22.733.084-34.1-.015-1.873-.016-2.853.57-3.773 2.171-9.213 16.03-18.513 32.007-27.778 48.005-.304.52-.949 1.075-.655 1.651.317.617 1.134.3 1.723.3 15.747.012 31.494.009 47.242.009zm-32.475 8.413c-.26 0-.53-.04-.78.009-.444.09-1.215-.33-1.233.477-.016.72.585 1.031 1.315 1 .206-.01.42-.016.623.006.479.053 1.174-.162 1.186.627.016.844-.65.953-1.318.95-1.594-.006-3.976-1.72-4.468-3.222-.357-1.09.05-1.698 1.209-1.801 1.033-.09 1.944.255 2.815.754.454.259.804.112 1.04-.315.23-.424-.035-.685-.36-.89-1.172-.746-2.45-1.135-3.85-1.048-2.226.137-3.275 1.832-2.248 3.814 1.159 2.237 3.038 3.664 5.546 4.132 1.804.336 3.103-.527 3.25-2.022.182-1.857-.491-2.468-2.727-2.471zm16.875 1.704c1.096-.495 1.847-1.14 1.69-2.296-.169-1.244-.97-2.044-2.107-2.496-1.2-.48-2.467-.312-3.714-.274-.407.012-.742.246-.632.697a46.172 46.172 0 002.198 6.8c.191.464 1.037.526 1.121.021.348-2.084 1.29-.748 1.973-.374.864.474 1.656 1.082 2.783.424-.864-1.1-2.229-1.42-3.313-2.502zm12.453-1.499c-.032 2.272 1.947 4.303 4.215 4.325 2.17.019 4.101-1.854 4.145-4.02.041-2.137-1.8-3.882-4.164-3.947-2.32-.066-4.168 1.536-4.196 3.642zm43.616-1.782c.04-.82-.532-1.405-1.466-1.692-1.631-.502-3.65-.143-4.074.776a144.55 144.55 0 00-2.41 5.537c-.17.411-.808.981-.16 1.334.66.358 1.212-.16 1.409-.814.382-1.262 1.24-1.51 2.467-1.567 2.001-.09 4.018-1.823 4.234-3.574zm-24.653 3.297c-.05 1.47.576 2.427 2.013 2.773 1.67.402 3.601-.62 4.268-2.396.545-1.452.877-2.982 1.29-4.484.116-.42.141-.863-.438-.972-.454-.084-.858.068-.999.539-.27.894-.479 1.804-.736 2.701-.24.842-.303 1.76-.948 2.44-.62.654-1.397.997-2.255.617-.836-.368-.748-1.122-.573-1.882.257-1.11.47-2.231.667-3.353.081-.458.135-.981-.554-1.062-.586-.069-.861.277-.958.797-.26 1.428-.517 2.855-.777 4.282z"/><path d="M57.892 28.154c2.086 0 4.171.031 6.257-.012 1.008-.022 1.337.361 1.378 1.361.338 8.744-5.84 15.455-14.333 15.508-9.212.06-16.01-6.503-15.775-15.234.2-7.487 6.397-13.797 14.097-14.311 4.907-.327 9.319.82 12.82 4.49 1.352 1.418 1.334 1.611-.194 2.72-1.222.888-2.502 1.698-3.673 2.643-.915.738-1.472.635-2.33-.194-3.523-3.415-8.987-2.795-11.248 1.281-1.594 2.873-1.515 5.82.445 8.51 1.77 2.427 4.29 3.147 7.205 2.589a5.071 5.071 0 001.19-.37c1.005-.465 2.36-1.144 2.248-2.1-.094-.808-1.628-.319-2.508-.334-3.397-.06-3.416-.025-3.391-3.384.028-3.633-.467-3.122 3.125-3.163 1.556-.015 3.122 0 4.687 0zm17.175 5.759c.92 3.025 1.847 6.05 2.761 9.076.51 1.686.498 1.745-1.312 1.683-1.65-.056-3.654.685-4.856-.334-1.121-.947-1.056-2.947-1.472-4.496-1.992-7.416-3.955-14.841-5.921-22.263-.467-1.767-.448-1.658 1.43-1.81 1.676-.138 2.5.451 3.07 2.043 1.174 3.266 2.583 6.447 4.095 9.654 0-.92.04-1.839-.006-2.755a385.578 385.578 0 00-.467-7.606c-.066-.913.235-1.277 1.212-1.321 3.62-.156 3.592-.184 4.014 3.428.376 3.19.862 6.368 1.21 9.562.102.957.506 1.624 1.16 2.272 4.03 3.991 8.039 8.005 12.044 12.018.398.399.895.72 1.212 1.627-1.676 0-3.266-.16-4.81.037-2.452.308-4.061-.683-5.58-2.524-2.408-2.923-4.904-5.79-7.615-8.454l-.229-.074.06.236zm-48.714 1.498c-4.437 0-4.434 0-6.078 4.154-.363.916-.739 1.826-1.092 2.745-1.065 2.748-.583 2.337-3.545 2.374-.886.01-1.772-.034-2.659.01-1.214.062-1.493-.25-.832-1.387 2.113-3.633 4.145-7.313 6.218-10.971 2.866-5.057 5.771-10.093 8.586-15.178.592-1.066 1.287-1.427 2.477-1.386 2.552.084 5.107.046 7.66.018 1.039-.01 1.299.377.917 1.328a163.448 163.448 0 00-1.95 5.085c-.273.754-.746 1.022-1.535 1.01-1.876-.035-3.755.024-5.627-.026-.852-.021-1.353.287-1.694 1.054-.442.994-.952 1.96-1.46 2.922-.422.798-.212 1.14.696 1.131 1.772-.015 3.544.02 5.317-.006.886-.012 1.29.243.923 1.188-.225.58-.37 1.187-.56 1.779-1.347 4.16-1.35 4.156-5.762 4.156zm8.327 27.153c-.774.115-.965-.739-1.075-1.586-.11-.842.574-.726 1.059-.705.958.04 1.844.393 1.875 1.462.022.86-.836.726-1.86.829zm18.266-2.328c1.66 0 2.761.981 2.78 2.474.019 1.511-1.118 2.627-2.661 2.605-1.56-.022-2.725-1.237-2.684-2.804.038-1.44.98-2.275 2.565-2.275zm35.46 2.586c-.463-.068-1.152.078-.926-.663.288-.944.51-2.085 1.957-1.91.573.068 1.478-.144 1.327.791-.194 1.24-1.261 1.623-2.358 1.782z"/></g><defs><clipPath id="cclip0_224_1484"><path fill="#fff" transform="translate(.333 .167)" d="M0 0h103.333v71.667H0z"/></clipPath></defs></svg><svg fill="none" viewBox="0 0 43 43" id="file" xmlns="http://www.w3.org/2000/svg"><path fill-rule="evenodd" clip-rule="evenodd" d="M13.865 33.116a6.987 6.987 0 009.71-1.863l8.203-12.1-1.578-1.07-8.203 12.1a5.083 5.083 0 01-7.062 1.355 5.083 5.083 0 01-1.355-7.062l8.916-13.152a3.18 3.18 0 015.26 3.567l-7.489 11.047a1.275 1.275 0 01-1.765.34 1.275 1.275 0 01-.34-1.766l6.777-9.996-1.578-1.07-6.777 9.996a3.179 3.179 0 005.26 3.567l7.491-11.048a5.083 5.083 0 00-1.355-7.062 5.083 5.083 0 00-7.062 1.355l-8.917 13.152a6.988 6.988 0 001.864 9.71z" fill="currentColor"/></svg><svg fill="none" viewBox="0 0 41 34" id="telegram" xmlns="http://www.w3.org/2000/svg"><path d="M36.94.465L1.322 14.27c-1.433.643-1.918 1.93-.346 2.63l9.138 2.919L32.207 6.094c1.206-.861 2.441-.632 1.379.316L14.61 23.68l-.596 7.31c.552 1.128 1.563 1.133 2.207.572l5.25-4.993 8.992 6.768c2.088 1.242 3.224.44 3.674-1.838l5.897-28.07C40.647.627 39.602-.61 36.941.466z" fill="currentColor"/></svg><svg fill="none" viewBox="0 0 44 44" id="whatsapp" xmlns="http://www.w3.org/2000/svg"><path d="M39.754 14.54a19.257 19.257 0 00-4.138-6.157 19.093 19.093 0 00-6.157-4.138 19.158 19.158 0 00-7.46-1.495h-.086a19.205 19.205 0 00-13.6 5.69 19.076 19.076 0 00-4.09 6.135A19.257 19.257 0 002.75 22.09a19.31 19.31 0 002.063 8.59v6.53c0 1.092.885 1.977 1.976 1.977h6.536a19.31 19.31 0 008.59 2.063h.09c2.573 0 5.07-.498 7.42-1.474a19.098 19.098 0 006.136-4.09 19.205 19.205 0 005.69-13.6 19.178 19.178 0 00-1.496-7.545z" fill="currentColor"/><path d="M30.658 25.777c-.469-.24-2.802-1.384-3.236-1.538-.434-.164-.752-.241-1.065.24-.318.477-1.22 1.539-1.504 1.86-.275.319-.555.358-1.023.121-2.784-1.392-4.61-2.483-6.445-5.633-.486-.838.485-.778 1.392-2.587.155-.318.077-.588-.043-.83-.12-.24-1.066-2.569-1.461-3.518-.382-.924-.778-.795-1.066-.812-.275-.018-.588-.018-.906-.018-.318 0-.83.12-1.264.59-.434.476-1.658 1.623-1.658 3.952 0 2.33 1.697 4.585 1.93 4.903.24.318 3.338 5.096 8.095 7.154 3.007 1.298 4.185 1.41 5.689 1.186.915-.137 2.801-1.143 3.192-2.256.391-1.108.391-2.058.275-2.256-.116-.21-.434-.33-.902-.558z" fill="#fff"/></svg></svg>